<svg xmlns="http://www.w3.org/2000/svg" viewBox="0 0 32 32">
  <rect width="32" height="32" rx="8" fill="#0057e6"/>
  <path d="M16 4C16 4 10 9 10 14C10 16.2 11.8 18 14 18H18C20.2 18 22 16.2 22 14C22 9 16 4 16 4Z" fill="white" opacity="0.9"/>
  <path d="M8 18C8 18 4 21 4 24C4 26.2 5.8 28 8 28C10.2 28 12 26.2 12 24C12 21 8 18 8 18Z" fill="white" opacity="0.7"/>
  <path d="M24 18C24 18 20 21 20 24C20 26.2 21.8 28 24 28C26.2 28 28 26.2 28 24C28 21 24 18 24 18Z" fill="white" opacity="0.7"/>
  <path d="M16 18V28" stroke="white" stroke-width="2" stroke-linecap="round" opacity="0.5"/>
</svg>
